<svg id="Слой_1" data-name="Слой 1" xmlns="http://www.w3.org/2000/svg" viewBox="0 0 906.51 815.14"><defs><style>.cls-1{fill:#0d0e97;}</style></defs><g id="Надпись"><path class="cls-1" d="M958.74,818.72c.57,25.3.17,50.63.17,76.54H937.14V836.7c0-2.84,0-5.67,0-8.5-.13-17.29-10.89-20.85-24.36-17.83-8.25,1.85-14.18,10.77-14,18.41.51,20.32.17,40.66.17,61v5.76h-22v-64.1c0-1.17,0-2.34,0-3.5-.37-12.73-6.11-18.67-17.84-18.47-12.26.22-20.58,8.1-20.6,19.62q0,30,0,60v6.36h-22V796.19h21.43v16.59c5.77-13.59,16.39-18.59,30.23-18.76,14.08-.17,24.64,4.78,28.94,20a28.91,28.91,0,0,0,1.83-3c4.67-11.13,13.72-16,25.1-16.77a60.82,60.82,0,0,1,15.87,1.05C950.87,797.52,958.46,806.22,958.74,818.72Z" transform="translate(-52.54 -115.89)"/><path class="cls-1" d="M131.7,879.33v16.18H53.55v-5.8q0-58.22,0-116.43c0-6.71,0-6.73,6.9-6.73h71.17v16.23H75.94V796c0,7.16.18,14.33-.07,21.48-.12,3.6,1.22,4.51,4.62,4.48,14.65-.15,29.31-.06,44-.06h5.66v15.9H76.28v41.52Z" transform="translate(-52.54 -115.89)"/><path class="cls-1" d="M326.91,828.14c.19,5.82,0,11.65,0,17.48h-.29c0,7,.83,14.09-.17,20.93C324,883.6,314,893.29,296.41,896.63a72.25,72.25,0,0,1-31.68-1c-14.81-3.79-24.34-14-25.71-29.47a222.82,222.82,0,0,1-.49-37.87c1.71-20.62,13.09-31.71,33.86-34,10.55-1.16,21.26-1.23,31.58,2.51C318,801.93,326.41,813.23,326.91,828.14ZM305,845.69c0-4.66.08-9.31,0-14-.38-19.83-12.74-25-29-22.23-9.1,1.57-14.55,7.56-15,16.79a362.77,362.77,0,0,0-.19,36.87c.72,13.53,9.65,20.57,23.12,19.56,13.86-1,20.35-7.6,21-21.55.24-5.15,0-10.31,0-15.47Z" transform="translate(-52.54 -115.89)"/><path class="cls-1" d="M793.81,830.69c.29,7.44,0,14.9,0,22.9H731.49c-4.09,13.93,4.28,25.33,19.23,27.52,14.11,2.07,27.41-.66,41.25-6.48-.54,5.08-.79,9.39-1.57,13.6a5.39,5.39,0,0,1-3,3.41c-18.29,7-37,8.2-55.63,2.05-14.23-4.69-22-15.29-22.76-30.24-.59-12.45-.63-25,0-37.41.84-16.24,11-28.14,27.08-30.61a100.19,100.19,0,0,1,29.19-.15C783.29,797.88,793,810.67,793.81,830.69Zm-21.76,8.63c.43-10.61,2.16-21.13-8.41-27.71-7.19-4.47-20.5-3.89-26.48,1.26-8.3,7.16-6.67,16.86-6.44,26.45Z" transform="translate(-52.54 -115.89)"/><path class="cls-1" d="M502.15,796.15h22.56c-3.71,12.09-7.3,23.82-10.92,35.54-9.66,31.27-19.41,62.51-28.91,93.82-1.28,4.21-3.1,5.88-7.61,5.46-5.11-.47-10.3-.11-16.06-.11,4.13-13.32,8-26,12.21-39.42-3.8,0-6.95.33-10-.13-1.57-.24-3.84-1.58-4.24-2.9C450,858.39,441,828.3,432,798.23a12.18,12.18,0,0,1-.17-2.3c6.68,0,13.17-.2,19.62.18,1.24.07,3,2.24,3.42,3.74,6.75,24.69,13.32,49.42,20,74.14.45,1.67,1,3.31,1.56,5l1.58.11q6-20.57,12-41.13C494.07,824.07,498.08,810.19,502.15,796.15Z" transform="translate(-52.54 -115.89)"/><path class="cls-1" d="M600.8,846.15c9.57,4.66,12.35,13.33,12.06,23.34-.29,9.82-3.58,18.46-13,22.39-6.89,2.87-14.58,4.35-22.06,5.2-11.85,1.34-23.51-.6-34.79-4.65-2.55-.91-4.24-2-4.34-5.14-.12-4.28-.87-8.53-1.24-11.8,10.84,2.08,21.3,4.51,31.9,5.93,4.43.59,9.28-.48,13.7-1.67,4.69-1.27,7.43-4.88,7.85-9.91s-.87-9.47-5.54-11.9a151.27,151.27,0,0,0-14.14-6.09c-7-2.75-14.15-4.93-20.88-8.12-10.72-5.07-14.06-14.41-13.22-25.67.79-10.44,6.33-17.57,16.06-20.73,17.42-5.65,34.76-4.47,51.67,2.46,1.19.49,2.67,1.84,2.85,3,.7,4.36.93,8.8,1.4,13.91-10.79-4.88-21.31-7.75-32.49-7.18a50.67,50.67,0,0,0-9.82,1.42c-4.15,1.06-7.11,3.72-7.76,8.17-.73,5,.27,9.64,5,12.08,5.28,2.71,10.93,4.71,16.47,6.92C587.25,840.8,594.27,843,600.8,846.15Z" transform="translate(-52.54 -115.89)"/><path class="cls-1" d="M408.27,846.06c9.68,5,12.24,13.62,11.91,23.92-.31,9.85-4,17.35-12.76,22.12s-18.51,5.94-28.12,5.14c-9.84-.82-19.55-3.29-29.31-5.1-2.9-.54-3.92-2.42-4-5.39-.09-4.09-.68-8.17-1-11.2,10.74,2.06,21.22,4.42,31.81,5.9,4.12.58,8.61-.45,12.77-1.43,4.68-1.1,7.93-4.07,8.49-9.26.62-5.75-.52-10.82-6.2-13.46-5.11-2.38-10.45-4.25-15.7-6.31-6.18-2.43-12.56-4.42-18.52-7.3-10.27-5-13.67-13.88-13.1-24.8.59-11.13,6.3-18.52,16.73-21.78,17.15-5.36,34.17-4.12,50.77,2.57a6,6,0,0,1,2.95,3.92c.85,4.21,1.16,8.52,1.74,13.24-12.34-5.83-24.83-8.6-38.08-7-7.4.92-11.23,3.93-12.3,9.64s1.55,10.62,8.45,13.61c6.08,2.63,12.51,4.43,18.72,6.79A138.34,138.34,0,0,1,408.27,846.06Z" transform="translate(-52.54 -115.89)"/><path class="cls-1" d="M694.58,877.93c-.56,4.85-.85,9.14-1.66,13.33a5,5,0,0,1-3.06,3.12c-11.72,3.37-23.66,4-35.51,1.09-11.22-2.77-17.24-11-17.37-23.19-.2-18-.06-36-.07-54v-6.23H621.55v-15h15.27V772.3l21.66-2.46V797H693c-.53,5.08-1,9.61-1.53,14.7H659.21a8.84,8.84,0,0,0-.63,2c.08,18.31,0,36.63.37,55,.13,6.9,3.38,10.79,10.17,11.44,6.34.62,12.83-.28,19.24-.69A40.5,40.5,0,0,0,694.58,877.93Z" transform="translate(-52.54 -115.89)"/><path class="cls-1" d="M223.21,876.82c-.41,4.07-.76,8.64-1.44,13.15-.13.85-1.43,1.8-2.39,2.21-16.76,7.08-33.7,7.71-50.25-.14-9.53-4.51-15-13.17-15.84-23.42-1.13-13.4-1.83-27-.78-40.38,1.7-21.55,13.15-32.14,34.71-34,9.51-.83,18.92-.07,28,3.38,3.72,1.42,6.35,3.1,6.27,7.61,0,3.11.5,6.23.9,10.64a48.21,48.21,0,0,0-28.07-6c-11.27,1-18.68,7.54-19.39,19a270.31,270.31,0,0,0-.24,32c.8,14.43,10.59,22,26.19,20.51C208.21,880.55,215.4,878.43,223.21,876.82Z" transform="translate(-52.54 -115.89)"/></g><g id="Шапка"><path class="cls-1" d="M509.06,193.63c1.54.56,3.05,1.19,5.82,2.27l-15.26,5.71c-5.62,2.1-11.2,4.31-16.88,6.22-2.67.9-3.56,2.35-3.49,5.12.41,17,.43,34,1.14,51,.21,5.05,2.3,10,3.33,15a66.83,66.83,0,0,1,1.65,10.84c.27,7.16-2.85,10.94-9.63,12.46-10.69,2.39-16.89-2.45-15.73-13.32.67-6.35,3.18-12.49,4.85-18.73.54-2.07,1.47-4.15,1.45-6.22-.21-15.5-.61-31-1-46.48a21.56,21.56,0,0,0-.53-3L417.45,232.2,453.8,339.32,411.26,363q-57.86,32.19-115.67,64.45c-3.37,1.89-5.72,1.69-9-.12q-79.33-43.93-158.81-87.59c-1.45-.8-2.87-1.64-4.79-2.74,12.55-34.66,25-68.88,37.59-103.77L67.81,198c11.53-4.28,21.86-8.13,32.2-12q94.34-34.89,188.71-69.72a7.29,7.29,0,0,1,4.59-.14Q401.22,154.84,509.06,193.63ZM452.27,196c-2.5-1.16-3.75-1.85-5.07-2.33q-76.45-27.33-152.94-54.54a10.54,10.54,0,0,0-6.59.14q-60.6,22.16-121.09,44.56-18.17,6.69-36.29,13.44c0,.4.07.79.1,1.18,1.18.49,2.34,1.06,3.55,1.46q75.29,24.67,150.56,49.4a18.64,18.64,0,0,0,12.88.13q73.89-25.69,147.92-51C447.25,197.79,449.18,197.09,452.27,196ZM421.94,332.84c2.91-1.57,3.55-3,2.49-6.25-7.36-22.46-14.51-45-21.74-67.48-1.92-6-3.88-12-5.89-18.14-2.09.64-3.66,1.08-5.21,1.6-31.88,10.68-63.73,21.43-95.67,31.91a16.29,16.29,0,0,1-9.48,0c-20.73-6.75-41.34-13.86-62-20.85L187,241c-.67,1.38-1.27,2.36-1.66,3.42-9.88,26.87-19.64,53.78-29.7,80.58-1.44,3.83.63,4.6,3,5.92Q223,366.24,287.34,401.74a7,7,0,0,0,7.74,0Q358.44,367.16,421.94,332.84Z" transform="translate(-52.54 -115.89)"/><path class="cls-1" d="M499,439.9c2.5,4.22,6.28,7.69,9.92,12-8,3.21-15.52,6.24-23.05,9.23q-96.08,38.13-192.2,76.15a12,12,0,0,1-7.92.22Q182.55,497.76,79.47,457.66c-1.82-.71-3.61-1.49-6.62-2.74,7.71-10.07,14.46-20,22.47-28.72,2.6-2.83,8.6-3.86,12.9-3.57,15.26,1,30.57,2.36,45.67,4.78,15.42,2.48,30.67,6.14,45.9,9.73,26.15,6.15,47.15,21.27,66.2,39.37,8.54,8.11,16.35,17,24.73,25.79,22.21-30.89,52.24-50.93,87.12-63.8,29.09-10.74,59.69-12.71,90.48-13.66C482,424.42,492,428,499,439.9Z" transform="translate(-52.54 -115.89)"/><path class="cls-1" d="M532.72,664.45v18H52.54V662.83Z" transform="translate(-52.54 -115.89)"/><path class="cls-1" d="M524.59,470.71c1.82,2.93,4.11,5.57,6.59,8.88-11.47,5-22.33,10-33.43,14.36q-101.42,40.21-203,80.08a11.52,11.52,0,0,1-7.47-.1c-12-4.41-23.94-9.18-35.89-13.81Q154.22,522.44,57,484.75c-1.36-.52-2.64-1.21-4.35-2,3.48-4.18,6.45-8.21,10-11.68,1.05-1,3.92-1.13,5.54-.53,24.2,8.92,48.33,18,72.49,27.09q73.4,27.52,146.84,54.92a12.45,12.45,0,0,0,8-.25q110.73-41.73,221.32-83.82C520.43,467.09,522.56,467.41,524.59,470.71Z" transform="translate(-52.54 -115.89)"/></g></svg>